<svg width="44" height="32" viewBox="0 0 44 32" fill="none" xmlns="http://www.w3.org/2000/svg">
<path d="M11.7564 25.7609H3.89418C3.62516 25.7609 3.40686 25.5431 3.40686 25.2736C3.40686 25.0041 3.62516 24.7863 3.89418 24.7863H11.7564C12.0254 24.7863 12.2437 25.0041 12.2437 25.2736C12.2437 25.5431 12.0254 25.7609 11.7564 25.7609Z" fill="black"/>
<path d="M11.9631 21.9517H0.487315C0.218302 21.9517 0 21.7339 0 21.4644C0 21.1954 0.218302 20.9771 0.487315 20.9771H11.9631C12.2321 20.9771 12.4505 21.1954 12.4505 21.4644C12.4505 21.7339 12.2321 21.9517 11.9631 21.9517Z" fill="black"/>
<path d="M7.07549 18.1425H0.487315C0.218302 18.1425 0 17.9247 0 17.6552C0 17.3861 0.218302 17.1678 0.487315 17.1678H7.07549C7.34451 17.1678 7.56281 17.3861 7.56281 17.6552C7.56281 17.9247 7.34451 18.1425 7.07549 18.1425Z" fill="black"/>
<path d="M7.07549 14.3333H3.89418C3.62516 14.3333 3.40686 14.115 3.40686 13.846C3.40686 13.5769 3.62516 13.3586 3.89418 13.3586H7.07549C7.3445 13.3586 7.56281 13.5769 7.56281 13.846C7.56281 14.115 7.3445 14.3333 7.07549 14.3333Z" fill="black"/>
<path d="M21.7254 19.5609H12.0979C10.9561 19.5609 10.0269 18.6317 10.0269 17.4895V12.1541C10.0269 11.0124 10.9561 10.0831 12.0979 10.0831H19.6544C20.7962 10.0831 21.7254 11.0124 21.7254 12.1541V19.5609ZM12.0979 11.0471C11.4874 11.0471 10.9904 11.5441 10.9904 12.1546V17.4895C10.9904 18.1004 11.4874 18.5974 12.0979 18.5974H20.7619V12.1546C20.7619 11.5441 20.2649 11.0471 19.6544 11.0471H12.0979Z" fill="black"/>
<path d="M37.6107 16.7666H37.3504C36.028 16.7666 34.9515 15.6905 34.9515 14.3681C34.9515 13.0453 36.028 11.9692 37.3504 11.9692H37.6107C38.1922 11.9692 38.666 12.4425 38.666 13.0245V15.7113C38.666 16.2928 38.1927 16.7666 37.6107 16.7666ZM37.3504 12.9332C36.5593 12.9332 35.9155 13.577 35.9155 14.3681C35.9155 15.1592 36.5593 15.803 37.3504 15.803H37.6107C37.6609 15.803 37.702 15.762 37.702 15.7118V13.0245C37.702 12.9743 37.6609 12.9332 37.6107 12.9332H37.3504Z" fill="black"/>
<path d="M35.1143 28.1086C35.0978 28.1086 35.0809 28.1076 35.0645 28.1057C34.8858 28.0873 34.7327 27.9709 34.6666 27.8038C34.2164 26.6693 34.2295 25.4252 34.7023 24.3018C35.1824 23.163 36.0773 22.2791 37.2219 21.8131C38.3675 21.3475 39.6247 21.3547 40.764 21.8348C42.0091 22.3593 42.9601 23.402 43.3725 24.6954C43.4276 24.8664 43.3822 25.0538 43.2557 25.1813C43.1296 25.3088 42.9432 25.3556 42.7708 25.302C40.0661 24.4646 37.0824 25.5305 35.5156 27.8927C35.4258 28.0289 35.2746 28.1086 35.1143 28.1086ZM38.9708 22.4366C37.5407 22.4366 36.1797 23.2784 35.5905 24.6771C35.3374 25.2779 35.2505 25.9227 35.3311 26.5558C37.007 24.6636 39.5711 23.7449 42.0652 24.1502C41.6691 23.5184 41.0876 23.0186 40.3888 22.724C39.9256 22.5288 39.445 22.4366 38.9708 22.4366Z" fill="black"/>
<path d="M28.343 9.28919C25.9934 9.28919 23.7809 6.30541 23.7809 3.99295C23.7809 2.84204 24.3735 0.910645 28.343 0.910645C30.653 0.910645 32.5323 2.78988 32.5323 5.09992C32.5323 7.40996 30.653 9.28919 28.343 9.28919ZM28.343 1.87417C25.9552 1.87417 24.7449 2.58703 24.7449 3.99247C24.7449 5.78235 26.6058 8.32518 28.343 8.32518C30.1213 8.32518 31.5688 6.87821 31.5688 5.09992C31.5688 3.32163 30.1213 1.87417 28.343 1.87417Z" fill="black"/>
<path d="M28.6724 9.29743L27.76 6.18566C27.6277 5.73409 27.7427 5.26029 28.0667 4.91932C28.3918 4.57834 28.8602 4.44166 29.3167 4.54985L32.5492 5.32598L32.4787 5.76693C32.1985 7.51479 30.8404 8.90236 29.0993 9.21967L28.6724 9.29743ZM29.008 5.47666C28.8825 5.47666 28.7989 5.54814 28.7651 5.5834C28.7241 5.6259 28.6352 5.74423 28.6849 5.91423L29.3447 8.16535C30.3401 7.84128 31.1196 7.04776 31.4263 6.04753L29.0916 5.48681C29.0621 5.48005 29.0336 5.47666 29.008 5.47666Z" fill="black"/>
<path d="M34.2304 14.2888C34.1188 14.2888 34.0068 14.2647 33.9015 14.2159C33.5243 14.0411 33.0708 13.9406 32.5125 13.9073C32.258 13.8923 32.0594 13.6813 32.0594 13.4262V11.7644C32.0594 11.4982 32.2749 11.2823 32.5415 11.2823H33.5354C34.3444 11.2823 35.0022 11.9402 35.0022 12.7491V13.5185C35.0022 13.7822 34.8698 14.0242 34.6482 14.1662C34.5211 14.2478 34.3763 14.2888 34.2304 14.2888ZM33.0235 12.9882C33.3968 13.0365 33.7325 13.1171 34.0387 13.2302V12.7496C34.0387 12.4724 33.8126 12.2468 33.5354 12.2468H33.0235V12.9882Z" fill="black"/>
<path d="M26.5154 16.8766C26.4435 16.8766 26.371 16.8607 26.3039 16.8279C25.8562 16.6096 25.3747 16.4985 24.8719 16.4985H21.2434C20.9772 16.4985 20.7614 16.2826 20.7614 16.0165V13.9325C20.7614 10.7241 23.3718 8.10932 26.5802 8.104C28.3903 8.104 29.8866 9.54567 30.3763 10.9018C30.4589 11.1298 30.6724 11.2824 30.908 11.2824H32.541C32.8076 11.2824 33.023 11.4983 33.023 11.7644V13.5268C33.023 14.342 32.3598 15.0051 31.5446 15.0051H29.3867C28.8936 15.0051 28.4275 14.8854 28.0165 14.6738C27.3288 15.2674 26.9859 15.8426 26.9965 16.385C26.9999 16.5526 26.9153 16.71 26.7738 16.8003C26.6961 16.8511 26.6058 16.8766 26.5154 16.8766ZM21.7254 15.5345H24.8719C25.3027 15.5345 25.7214 15.5977 26.1242 15.7224C26.2836 15.1665 26.6531 14.6193 27.2283 14.087C26.7072 13.5466 26.3865 12.8125 26.3865 12.0045C26.3865 11.7383 26.6019 11.5225 26.8685 11.5225C27.1351 11.5225 27.3505 11.7383 27.3505 12.0045C27.3505 13.1274 28.2643 14.0416 29.3872 14.0416H31.5451C31.8291 14.0416 32.0594 13.8108 32.0594 13.5273V12.2469H30.9085C30.2681 12.2469 29.6895 11.8378 29.4702 11.2293C29.1467 10.3319 28.0358 9.06801 26.5816 9.06801C23.904 9.07236 21.7258 11.2549 21.7258 13.9325L21.7254 15.5345Z" fill="black"/>
<path d="M28.6265 24.1564H26.5391C25.5659 24.1564 24.7739 23.3643 24.7739 22.3911V21.1639C24.7739 20.2801 24.0547 19.5609 23.1704 19.5609H21.2438C20.9777 19.5609 20.7618 19.3455 20.7618 19.0789V16.0164C20.7618 15.7503 20.9777 15.5344 21.2438 15.5344H24.8724C27.2085 15.5344 29.109 17.4349 29.109 19.7705V23.6744C29.1085 23.941 28.8931 24.1564 28.6265 24.1564ZM21.7254 18.5969H23.1699C24.5855 18.5969 25.7369 19.7483 25.7369 21.1639V22.3911C25.7369 22.833 26.0962 23.1924 26.5381 23.1924H28.144V19.7705C28.144 17.9662 26.6758 16.4979 24.8714 16.4979H21.7249V18.5969H21.7254Z" fill="black"/>
<path d="M20.8797 29.1894C19.5786 29.1894 18.5199 28.1307 18.5199 26.8291C18.5199 26.6567 18.5416 26.4799 18.587 26.2877L19.525 26.5089C19.4974 26.6277 19.4834 26.732 19.4834 26.8291C19.4834 27.599 20.1098 28.2254 20.8797 28.2254C21.6495 28.2254 22.2759 27.599 22.2759 26.8291C22.2759 26.732 22.2624 26.6277 22.2344 26.5094L23.1719 26.2872C23.2177 26.479 23.2395 26.6562 23.2395 26.8291C23.2395 28.1302 22.1813 29.1894 20.8797 29.1894Z" fill="black"/>
<path d="M20.8797 31.0401C18.5581 31.0401 16.6687 29.1512 16.6687 26.8291C16.6687 26.6649 16.6803 26.5036 16.6986 26.3433L17.6564 26.4534C17.6419 26.5765 17.6327 26.7016 17.6327 26.8291C17.6327 28.62 19.0893 30.0766 20.8797 30.0766C22.6701 30.0766 24.1267 28.62 24.1267 26.8291C24.1267 26.7021 24.1175 26.5775 24.103 26.4539L25.0603 26.3428C25.0791 26.5026 25.0902 26.6644 25.0902 26.8291C25.0907 29.1512 23.2013 31.0401 20.8797 31.0401Z" fill="black"/>
<path d="M39.2562 31.0402C37.0379 31.0402 35.1939 29.3049 35.0582 27.09L36.0203 27.0306C36.1246 28.7384 37.5465 30.0762 39.2562 30.0762C41.047 30.0762 42.5037 28.6196 42.5037 26.8287C42.5037 26.1583 42.2984 25.5131 41.9106 24.9625L42.6983 24.4071C43.2011 25.1219 43.4672 25.9589 43.4672 26.8292C43.4672 29.1513 41.5783 31.0402 39.2562 31.0402Z" fill="black"/>
<path d="M39.2562 29.1894C37.9551 29.1894 36.8964 28.1307 36.8964 26.8291C36.8964 25.5275 37.9546 24.4694 39.2562 24.4694C40.5578 24.4694 41.6165 25.5275 41.6165 26.8291C41.6165 28.1307 40.5573 29.1894 39.2562 29.1894ZM39.2562 25.4334C38.4868 25.4334 37.8604 26.0598 37.8604 26.8291C37.8604 27.599 38.4868 28.2254 39.2562 28.2254C40.0261 28.2254 40.6525 27.599 40.6525 26.8291C40.6525 26.0598 40.0261 25.4334 39.2562 25.4334Z" fill="black"/>
<path d="M35.3543 26.8803H15.7554C15.2034 26.8803 14.6856 26.6099 14.3702 26.1559C14.0549 25.7024 13.9819 25.1223 14.1746 24.6046L15.1063 22.1004C15.8863 20.0048 17.9128 18.5964 20.149 18.5964H23.1709C24.5865 18.5964 25.7379 19.7478 25.7379 21.1634V22.3906C25.7379 22.8326 26.0972 23.1919 26.5391 23.1919H32.5294C32.8071 23.1919 33.0674 23.0692 33.2427 22.8543C33.4224 22.636 33.4919 22.3525 33.4335 22.0762L31.7904 14.3149L32.7337 14.1155L34.3767 21.8768C34.4965 22.4414 34.3545 23.0209 33.988 23.4667C33.6286 23.9043 33.0969 24.1559 32.5294 24.1559H26.5391C25.5659 24.1559 24.7739 23.3638 24.7739 22.3906V21.1634C24.7739 20.2796 24.0547 19.5604 23.1704 19.5604H20.1485C18.3127 19.5604 16.6494 20.7162 16.009 22.4365L15.0773 24.9407C14.9938 25.1663 15.0242 25.4087 15.1614 25.6058C15.2985 25.8033 15.5149 25.9163 15.7549 25.9163H34.3439C34.3637 25.3609 34.4835 24.8205 34.7018 24.3022C35.3852 22.6819 36.9317 21.6087 38.6414 21.487L34.1015 13.5248L34.9389 13.0476L40.3786 22.5887L39.4223 22.4684C37.8015 22.2617 36.2241 23.1721 35.59 24.6775C35.3639 25.2131 35.2717 25.7801 35.3152 26.3631L35.3543 26.8803Z" fill="black"/>
</svg>
