<svg width="448" xmlns="http://www.w3.org/2000/svg" height="512" fill="none"><defs><clipPath id="a" class="frame-clip frame-clip-def"><rect rx="0" ry="0" width="448" height="512"/></clipPath></defs><g clip-path="url(#a)"><g class="fills"><rect rx="0" ry="0" width="448" height="512" class="frame-background"/></g><g class="frame-children"><path d="M100.28 448H7.4V148.9h92.88ZM53.79 108.1C24.09 108.1 0 83.5 0 53.8 0 24.093 24.083.01 53.79.01s53.79 24.083 53.79 53.79c0 29.7-24.1 54.3-53.79 54.3ZM447.9 448h-92.68V302.4c0-34.7-.7-79.2-48.29-79.2-48.29 0-55.69 37.7-55.69 76.7V448h-92.78V148.9h89.08v40.8h1.3c12.4-23.5 42.69-48.3 87.88-48.3 94 0 111.28 61.9 111.28 142.3l-.1 164.3Z" class="fills" style="fill: rgb(0, 0, 0);"/></g></g></svg>